<svg xmlns="http://www.w3.org/2000/svg" viewBox="0 0 217.47 119.67"><title>iconSel_5_s2</title><g id="Layer_2" data-name="Layer 2"><g id="Layer_1-2" data-name="Layer 1"><path fill="#fff" d="M10.26,57.16s12-1,10,10c-2.89,15.77-4,32-9,34s-10-5-11-19S1.25,61.15,10.26,57.16Z"/><path fill="#29abe2" d="M31.56,62.14s10.76,9.21,12.67,15.24,3,23.82-3.28,27.9c-12.57,8.19-14.08,5.8-18-.25s-6.62-27.1.58-41C24.57,61,27.6,59.09,31.56,62.14Z"/><path fill="#29abe2" d="M107.24,74.28s1,11,1,19,1,25-9,26-21,2-21-25c0-18-1-22,4-24C87.24,69.25,104.24,69.27,107.24,74.28Z"/><path fill="#fff" d="M50.24,69.21c1.42,0,18,0,23,3,3,2,3.91,2.65,4,14s-5,26-17,26c-6,0-13-13-14-26S45.24,69.2,50.24,69.21Z"/><path fill="#29abe2" d="M87.32,8.25s21-2,21,29l0,19s1,8-3,8-25,2-32-1-6-4-6-17S65.31,11.23,87.32,8.25Z"/><path fill="#fff" d="M44.32,8.2c3,.4,20,1.38,21.95,32.2,0,10.65-2,15.82-2,15.82s-1,3-9,3-18,1-22-6C31.27,50.18,29.32,6.18,44.32,8.2Z"/><path fill="#29abe2" d="M9.33.16s16-3,21,17c1.28,12.45,0,28-2,30-5.11,5.09-12,11-17,2S2.32,6.15,9.33.16Z"/><path fill="#29abe2" d="M207.26,57.4s-12-1-10,10c2.84,15.77,4,32,8.95,34s10-5,11-19S216.25,61.41,207.26,57.4Z"/><path fill="#fff" d="M186,62.33s-10.79,9.18-12.72,15.2-3,23.82,3.22,27.92c12.55,8.22,14.07,5.83,18-.21s6.68-27.08-.48-41C192.94,61.25,189.91,59.29,186,62.33Z"/><path fill="#fff" d="M110.24,74.28s-1,11-1,19-1,25,9,26,21,2,21-25c0-18,1-22-4-24C130.24,69.3,113.24,69.28,110.24,74.28Z"/><path fill="#29abe2" d="M167.24,69.35c-1.41,0-18,0-23,3-3,2-3.92,2.64-4,14s5,26,17,26c6,0,13-13,14-26S172.24,69.36,167.24,69.35Z"/><path fill="#fff" d="M130.32,8.3s-21-2-21,29l0,19s-1,8,3,8,25,2,32-1,6-4,6-17S152.31,11.33,130.32,8.3Z"/><path fill="#29abe2" d="M173.32,8.36c-3,.39-20,1.33-22,32.15,0,10.64,2,15.82,2,15.82s1,3,9,3,18,1,22-6C186.27,50.37,188.32,6.38,173.32,8.36Z"/><path fill="#fff" d="M208.33.4s-16-3-21,17c-1.32,12.45,0,28,2,30,5.09,5.1,12,11,17,2S215.32,6.41,208.33.4Z"/></g></g></svg>