<svg xmlns="http://www.w3.org/2000/svg" viewBox="0 0 217.47 119.54"><title>iconSel_2_s1</title><g id="Layer_2" data-name="Layer 2"><g id="Layer_1-2" data-name="Layer 1"><path fill="#FFF" d="M10.23,57.16s12-1,10,10c-2.86,15.77-4,32-9,34s-10-5-11-19S1.23,61.16,10.23,57.16Z"/><path fill="#FFF" d="M31.54,62.12s10.77,9.19,12.69,15.22,3,23.82-3.25,27.9c-12.55,8.21-14.07,5.82-18-.23s-6.66-27.09.52-41C24.55,61,27.58,59.07,31.54,62.12Z"/><path fill="#FFF" d="M107.23,74.16s1,11,1,19,1,25-9,26-21,2-21-25c0-18-1-22,4-24C87.23,69.16,104.23,69.16,107.23,74.16Z"/><path fill="#FFF" d="M50.23,69.16c1.42,0,18,0,23,3,3,2,3.92,2.65,4,14s-5,26-17,26c-6,0-13-13-14-26S45.23,69.16,50.23,69.16Z"/><path fill="#29abe2" d="M87.23,8.16s21-2,21,29v19s1,8-3,8-25,2-32-1-6-4-6-17S65.23,11.16,87.23,8.16Z"/><path fill="#29abe2" d="M44.23,8.16c3,.4,20,1.35,22,32.18,0,10.64-2,15.82-2,15.82s-1,3-9,3-18,1-22-6C31.23,50.16,29.23,6.16,44.23,8.16Z"/><path fill="#29abe2" d="M9.23.16s16-3,21,17c1.31,12.44,0,28-2,30-5.09,5.1-12,11-17,2S2.23,6.16,9.23.16Z"/><path fill="#FFF" d="M207.23,57.16s-12-1-10,10c2.87,15.77,4,32,9,34s10-5,11-19S216.23,61.16,207.23,57.16Z"/><path fill="#FFF" d="M185.93,62.12s-10.77,9.19-12.7,15.22-3,23.82,3.25,27.9c12.56,8.21,14.08,5.82,18-.23s6.65-27.09-.52-41C192.92,61,189.89,59.07,185.93,62.12Z"/><path fill="#FFF" d="M110.23,74.16s-1,11-1,19-1,25,9,26,21,2,21-25c0-18,1-22-4-24C130.23,69.16,113.23,69.16,110.23,74.16Z"/><path fill="#FFF" d="M167.23,69.16c-1.41,0-18,0-23,3-3,2-3.91,2.65-4,14s5,26,17,26c6,0,13-13,14-26S172.23,69.16,167.23,69.16Z"/><path fill="#29abe2" d="M130.23,8.16s-21-2-21,29v19s-1,8,3,8,25,2,32-1,6-4,6-17S152.23,11.16,130.23,8.16Z"/><path fill="#29abe2" d="M173.23,8.16c-3,.4-20,1.35-22,32.18,0,10.64,2,15.82,2,15.82s1,3,9,3,18,1,22-6C186.23,50.16,188.23,6.16,173.23,8.16Z"/><path fill="#29abe2" d="M208.23.16s-16-3-21,17c-1.3,12.44,0,28,2,30,5.1,5.1,12,11,17,2S215.23,6.16,208.23.16Z"/></g></g></svg>